<svg xmlns="http://www.w3.org/2000/svg" width="96" height="96" fill="none" viewBox="0 0 96 96" id="alert-octagon">
  <path fill="url(#paint0_linear_980_5457)" fill-rule="evenodd" d="M25.98 12.3186C29.2626 9.03731 33.7141 7.19442 38.3554 7.19531L57.6606 7.19902C62.3019 7.19992 66.7528 9.04451 70.034 12.327L83.6823 25.9805C86.9635 29.263 88.8064 33.7146 88.8055 38.3559L88.8018 57.6611C88.8009 62.3024 86.9563 66.7533 83.6738 70.0345L70.0203 83.6828C66.7378 86.964 62.2862 88.8069 57.645 88.806L38.3397 88.8023C33.6984 88.8014 29.2476 86.9568 25.9663 83.6743L12.3181 70.0208C9.03682 66.7383 7.19393 62.2867 7.19482 57.6454L7.19854 38.3402C7.19943 33.6989 9.04403 29.2481 12.3265 25.9668L25.98 12.3186ZM38.3544 12.1953C35.0392 12.1947 31.8596 13.511 29.5149 15.8548L15.8614 29.503C13.5167 31.8468 12.1992 35.026 12.1985 38.3412L12.1948 57.6464C12.1942 60.9616 13.5105 64.1413 15.8543 66.486L29.5025 80.1394C31.8463 82.4841 35.0255 83.8017 38.3407 83.8023L57.6459 83.806C60.9611 83.8067 64.1408 82.4903 66.4855 80.1466L80.139 66.4983C82.4836 64.1546 83.8012 60.9754 83.8018 57.6602L83.8055 38.3549C83.8062 35.0397 82.4898 31.86 80.1461 29.5154L66.4978 15.8619C64.1541 13.5172 60.9749 12.1997 57.6597 12.199L38.3544 12.1953ZM48.0002 34.4998C49.3809 34.4998 50.5002 35.6191 50.5002 36.9998V48.4998C50.5002 49.8806 49.3809 50.9998 48.0002 50.9998C46.6195 50.9998 45.5002 49.8806 45.5002 48.4998V36.9998C45.5002 35.6191 46.6195 34.4998 48.0002 34.4998ZM48.0002 59.6991C49.3809 59.6991 50.5002 58.5798 50.5002 57.1991C50.5002 55.8184 49.3809 54.6991 48.0002 54.6991C46.6195 54.6991 45.5002 55.8184 45.5002 57.1991C45.5002 58.5798 46.6195 59.6991 48.0002 59.6991Z" clip-rule="evenodd"></path>
  <defs>
    <linearGradient id="paint0_linear_980_5457" x1="48" x2="48" y1="7.195" y2="88.806" gradientUnits="userSpaceOnUse">
      <stop stop-color="#FF1F00"></stop>
      <stop offset="1" stop-color="#FF8A00"></stop>
    </linearGradient>
  </defs>
</svg>
